<svg xmlns="http://www.w3.org/2000/svg" xmlns:xlink="http://www.w3.org/1999/xlink" viewBox="0 0 1920 652">
  <defs>
    <style>
      .cls-1 {
        fill: url(#linear-gradient);
      }
    </style>
    <linearGradient id="linear-gradient" x1="0.5" x2="0.5" y2="1" gradientUnits="objectBoundingBox">
      <stop offset="0" stop-opacity="0.251"/>
      <stop offset="1" stop-opacity="0"/>
    </linearGradient>
  </defs>
  <g id="overlay" transform="translate(0 -3200)">
    <rect id="Rectangle_22" data-name="Rectangle 22" class="cls-1" width="1920" height="588" transform="translate(0 3264)"/>
    <path id="Subtraction_1" data-name="Subtraction 1" d="M1635.853,588.9a430.142,430.142,0,0,1-77.61-6.8c-25.776-4.746-49.3-11.875-69.9-21.19-61.021-27.581-109.106-49.81-147.744-67.671l-.034-.016C1278.2,464.4,1240.565,447,1212.652,436.706c-13.97-5.149-25.493-8.5-36.264-10.555a166.511,166.511,0,0,0-32.294-2.838c-12.454,0-26.355.944-43.955,2.139h-.017c-17.16,1.165-38.517,2.615-65.678,3.647-11.062.42-21.615.634-31.365.635-32.1,0-57.994-2.28-79.171-6.97a167.738,167.738,0,0,1-28.373-8.775,126.124,126.124,0,0,1-22.957-12.357,129.309,129.309,0,0,1-19.085-15.978,186.083,186.083,0,0,1-16.755-19.641c-10.733-14.319-20.9-31.037-32.675-50.4l-.019-.032-.022-.036,0-.005c-8.856-14.562-18.894-31.066-30.624-48.852a240.357,240.357,0,0,0-17.266-23.144,195.242,195.242,0,0,0-17.878-18.506A172.337,172.337,0,0,0,700.9,199.273a196.833,196.833,0,0,0-19.357-8.6c-6.136-2.358-12.59-4.53-19.73-6.641-13.244-3.917-26.986-7.038-40.277-10.056l-.049-.011-.015,0c-19.338-4.391-39.334-8.931-59.175-16.133a227.539,227.539,0,0,1-29.745-13.158c-5.057-2.7-10.048-5.63-14.835-8.718-5.025-3.242-10-6.767-14.78-10.476-27.485-21.317-62.7-36.863-104.662-46.206a418.68,418.68,0,0,0-52.484-8.08c-14.694-1.348-29.832-2.032-45-2.032A406.573,406.573,0,0,0,256,71.334V0H2176V292.787l-.011.039c-.426,1.464-2.771,9.334-7.088,20.532-2.774,7.195-5.8,14.326-9.007,21.2-4.006,8.6-8.3,16.825-12.761,24.453-11.356,19.412-23.853,35.1-37.144,46.617a104.454,104.454,0,0,1-24.558,16.138,83.387,83.387,0,0,1-13.814,4.957,78.6,78.6,0,0,1-14.853,2.381c-5.594.351-11.57.522-18.27.522-8.116,0-16.181-.247-23.98-.486h-.035l-.23-.007h-.031l-.076,0c-7.661-.234-15.583-.476-23.218-.476a201.829,201.829,0,0,0-31.18,2.026,102.789,102.789,0,0,0-28.978,8.628,86.232,86.232,0,0,0-13.423,7.985,91.767,91.767,0,0,0-12.583,11.072A112.128,112.128,0,0,0,1893.112,473a151.926,151.926,0,0,0-10.615,18.678c-7.054,14.615-19.04,28.281-35.625,40.62-15.731,11.7-35.282,22-58.11,30.594C1744.239,579.656,1689.934,588.893,1635.853,588.9Z" transform="translate(-256 3200)"/>
  </g>
</svg>
